<svg width="352" height="288" viewBox="0 0 352 288" fill="none" xmlns="http://www.w3.org/2000/svg">
<path d="M351.297 144L263.473 268.708L87.8242 268.708L0 144L87.8242 19.2923L263.473 19.2923L351.297 144Z" fill="url(#paint0_linear)"/>
<path fill-rule="evenodd" clip-rule="evenodd" d="M174.696 52.7057C178.86 52.7057 182.235 56.0808 182.235 60.244V150.703C182.235 154.867 178.86 158.242 174.696 158.242C170.533 158.242 167.158 154.867 167.158 150.703V60.244C167.158 56.0808 170.533 52.7057 174.696 52.7057Z" fill="white"/>
<path fill-rule="evenodd" clip-rule="evenodd" d="M239.526 94.9201C243.689 94.9201 247.064 98.2952 247.064 102.458V149.196C247.064 153.359 243.689 156.734 239.526 156.734C235.362 156.734 231.987 153.359 231.987 149.196V102.458C231.987 98.2952 235.362 94.9201 239.526 94.9201Z" fill="white"/>
<path fill-rule="evenodd" clip-rule="evenodd" d="M206.357 94.9201C210.52 94.9201 213.895 98.2952 213.895 102.458V149.196C213.895 153.359 210.52 156.734 206.357 156.734C202.194 156.734 198.819 153.359 198.819 149.196V102.458C198.819 98.2952 202.194 94.9201 206.357 94.9201Z" fill="white"/>
<path fill-rule="evenodd" clip-rule="evenodd" d="M143.036 94.9201C147.199 94.9201 150.574 98.2952 150.574 102.458V149.196C150.574 153.359 147.199 156.734 143.036 156.734C138.872 156.734 135.497 153.359 135.497 149.196V102.458C135.497 98.2952 138.872 94.9201 143.036 94.9201Z" fill="white"/>
<path fill-rule="evenodd" clip-rule="evenodd" d="M173.886 55.1714C175.022 56.3887 174.956 58.2968 173.738 59.4333L83.2791 143.862C82.0617 144.998 80.1536 144.933 79.0173 143.715C77.881 142.498 77.9468 140.59 79.1643 139.453L170.173 54.2134C171.391 53.0773 172.749 53.9538 173.886 55.1714Z" fill="white"/>
<path fill-rule="evenodd" clip-rule="evenodd" d="M238.749 97.4228C239.865 98.6594 239.767 100.566 238.531 101.682L179.219 156.734C177.983 157.85 173.573 158.483 172.458 157.247C171.342 156.01 171.44 154.104 172.676 152.988L235.003 96.4278C236.239 95.3121 237.633 96.1866 238.749 97.4228Z" fill="white"/>
<path fill-rule="evenodd" clip-rule="evenodd" d="M205.583 97.4259C206.697 98.6637 206.597 100.57 205.359 101.684L147.559 155.226C146.321 156.341 141.909 156.974 140.794 155.736C139.68 154.498 139.781 152.592 141.018 151.478L201.834 96.4278C203.072 95.3137 204.469 96.1881 205.583 97.4259Z" fill="white"/>
<path fill-rule="evenodd" clip-rule="evenodd" d="M142.152 97.311C143.33 98.4885 143.33 100.398 142.152 101.575L133.106 110.621C131.929 111.799 130.02 111.799 128.842 110.621C127.665 109.444 127.665 107.534 128.842 106.357L137.005 97.9355C138.182 96.758 140.975 96.1335 142.152 97.311Z" fill="white"/>
<path fill-rule="evenodd" clip-rule="evenodd" d="M256.957 139.774C257.997 141.074 257.786 142.972 256.486 144.012L244.049 155.226C242.748 156.267 238.211 156.903 237.171 155.602C236.131 154.302 236.342 152.404 237.642 151.364L252.719 139.303C254.019 138.263 255.917 138.473 256.957 139.774Z" fill="white"/>
<path fill-rule="evenodd" clip-rule="evenodd" d="M223.788 139.774C224.829 141.074 224.618 142.972 223.317 144.012L210.88 155.226C209.58 156.267 205.043 156.903 204.003 155.602C202.962 154.302 203.173 152.404 204.474 151.364L219.55 139.303C220.851 138.263 222.748 138.473 223.788 139.774Z" fill="white"/>
<path d="M204.849 52.7057C208.367 57.2287 213.292 68.9885 204.849 79.8436" stroke="white" stroke-linecap="round"/>
<path d="M218.418 52.7057C221.936 57.2287 226.861 68.9885 218.418 79.8436" stroke="white" stroke-linecap="round"/>
<path d="M230.48 52.7057C233.998 57.2287 238.922 68.9885 230.48 79.8436" stroke="white" stroke-linecap="round"/>
<path d="M110.478 213.386C110.478 217.198 109.175 220.202 106.569 222.396C103.991 224.563 100.275 225.77 95.4198 226.017V229.144H89.2895V225.976C84.4072 225.701 80.6632 224.481 78.0575 222.314C75.4792 220.12 74.1901 217.144 74.1901 213.386C74.1901 209.601 75.4792 206.638 78.0575 204.499C80.6632 202.332 84.4072 201.098 89.2895 200.796V197.834H95.4198V200.755C100.275 201.029 103.991 202.264 106.569 204.458C109.175 206.652 110.478 209.628 110.478 213.386ZM95.4198 220.792C98.3272 220.517 100.494 219.777 101.92 218.57C103.347 217.336 104.06 215.594 104.06 213.345C104.06 208.956 101.18 206.515 95.4198 206.021V220.792ZM80.6495 213.386C80.6495 217.72 83.5295 220.188 89.2895 220.792V206.021C86.3546 206.296 84.1741 207.036 82.7478 208.243C81.3489 209.422 80.6495 211.137 80.6495 213.386Z" fill="white"/>
<path d="M144.366 222.437V233.834H138.195V227.868H117.87V233.834H111.699L111.74 222.437H112.892C114.62 222.382 115.84 221.121 116.553 218.652C117.267 216.184 117.705 212.659 117.87 208.078L118.199 199.068H140.334V222.437H144.366ZM123.753 208.696C123.616 212.124 123.328 215.004 122.889 217.336C122.451 219.64 121.779 221.34 120.873 222.437H133.751V204.499H123.877L123.753 208.696Z" fill="white"/>
<path d="M175.102 199.068V227.868H168.478V204.499H155.477V227.868H148.853V199.068H175.102Z" fill="white"/>
<path d="M181.747 205.733H188.125V218.899L198.904 205.733H204.787V227.868H198.41V214.702L187.672 227.868H181.747V205.733Z" fill="white"/>
<path d="M237.7 199.068V227.868H231.076V204.499H218.075V227.868H211.451V199.068H237.7Z" fill="white"/>
<path d="M258.581 228.362C255.591 228.362 252.89 227.717 250.476 226.428C248.09 225.139 246.211 223.37 244.839 221.121C243.495 218.844 242.823 216.293 242.823 213.468C242.823 210.643 243.495 208.106 244.839 205.857C246.211 203.58 248.09 201.797 250.476 200.508C252.89 199.219 255.591 198.574 258.581 198.574C261.571 198.574 264.259 199.219 266.645 200.508C269.031 201.797 270.91 203.58 272.282 205.857C273.653 208.106 274.339 210.643 274.339 213.468C274.339 216.293 273.653 218.844 272.282 221.121C270.91 223.37 269.031 225.139 266.645 226.428C264.259 227.717 261.571 228.362 258.581 228.362ZM258.581 222.684C260.282 222.684 261.818 222.3 263.189 221.532C264.561 220.737 265.63 219.64 266.398 218.241C267.194 216.842 267.591 215.251 267.591 213.468C267.591 211.685 267.194 210.094 266.398 208.696C265.63 207.297 264.561 206.213 263.189 205.445C261.818 204.65 260.282 204.252 258.581 204.252C256.881 204.252 255.345 204.65 253.973 205.445C252.602 206.213 251.518 207.297 250.723 208.696C249.955 210.094 249.571 211.685 249.571 213.468C249.571 215.251 249.955 216.842 250.723 218.241C251.518 219.64 252.602 220.737 253.973 221.532C255.345 222.3 256.881 222.684 258.581 222.684Z" fill="white"/>
<defs>
<linearGradient id="paint0_linear" x1="87.033" y1="265.846" x2="262.681" y2="20.5714" gradientUnits="userSpaceOnUse">
<stop stop-color="#A5D0E1"/>
<stop offset="1" stop-color="#145D80"/>
</linearGradient>
</defs>
</svg>
