<svg width="205" height="255" viewBox="0 0 205 255" fill="none" xmlns="http://www.w3.org/2000/svg">
<path d="M74.5084 20.2024C84.1041 17.5056 91.5164 12.1861 102.412 2.0729C112.908 12.2297 121.106 17.5241 131.342 20.2092C141.638 22.91 153.917 22.9378 172.452 22.9381C179.024 33.1173 183.561 39.5062 187.581 45.1674C188.085 45.8774 188.581 46.576 189.072 47.2691C193.365 53.3298 197.273 58.9876 202.839 68.3394C194.675 73.666 190.368 79.7009 188.703 86.5435C186.976 93.6399 188.151 101.385 190.345 109.689C191.469 113.944 192.86 118.363 194.311 122.971C198.583 136.542 203.372 151.753 203.372 169.248C203.372 193.868 188.374 209.83 167.993 222.268C157.801 228.487 146.337 233.778 134.851 238.799C132.248 239.937 129.642 241.062 127.05 242.181C118.48 245.88 110.062 249.513 102.407 253.336C97.4362 251.061 92.1205 248.758 86.6232 246.376C70.3708 239.334 52.5306 231.604 37.3152 221.862C16.7489 208.693 1.5 192.161 1.5 169.248C1.5 158.708 3.44245 148.549 5.8982 138.852C6.9997 134.502 8.20009 130.261 9.37273 126.119C9.50763 125.642 9.64217 125.167 9.77614 124.693C11.0718 120.109 12.3156 115.643 13.3123 111.337C15.3003 102.748 16.3507 94.6235 14.8004 87.2252C13.3104 80.1142 9.44596 73.7998 2.02717 68.4173C8.96866 57.3713 13.3273 51.3093 19.3004 43.0019C23.0466 37.7917 27.4278 31.6982 33.4795 22.9381C53.0745 22.9379 64.8544 22.9155 74.5084 20.2024Z" fill="#F1FE11" stroke="black" stroke-width="3" stroke-linecap="round" stroke-linejoin="round"/>
<path d="M76.9415 30.8755C85.7177 28.4609 92.544 23.6813 102.42 14.4626C111.886 23.7021 119.207 28.4693 128.352 30.8783C137.538 33.2981 148.509 33.3161 165.197 33.3162C171.058 42.1521 173.708 45.8048 177.149 50.5461C179.787 54.1816 182.89 58.4572 188.26 66.2002C181.75 71.5094 178.68 77.6878 177.811 84.6004C176.917 91.711 178.359 99.5432 180.613 107.91C181.68 111.872 182.929 115.959 184.215 120.168C188.398 133.858 192.974 148.837 192.974 164.966C192.974 187.24 179.449 201.657 161.194 212.845C152.066 218.439 141.803 223.194 131.537 227.701C129.208 228.724 126.876 229.735 124.559 230.74C116.848 234.082 109.286 237.36 102.417 240.813C97.946 238.755 93.1546 236.67 88.194 234.512C73.6642 228.19 57.6828 221.236 44.061 212.476C25.6521 200.638 11.8974 185.712 11.8974 164.966C11.8974 155.48 13.8453 146.347 16.3546 137.511C17.5053 133.458 18.7703 129.481 20.0174 125.559C20.1303 125.204 20.2431 124.849 20.3556 124.495C21.7088 120.236 23.0267 116.042 24.1233 111.926C26.3145 103.702 27.648 95.7044 26.5999 87.9724C25.5777 80.4324 22.3002 73.2111 15.4897 66.3072C25.7969 52.6474 26.0994 52.2325 39.7425 33.3162C57.394 33.3162 68.1237 33.3015 76.9415 30.8755Z" fill="#F1FE11" stroke="black" stroke-width="2" stroke-linecap="round" stroke-linejoin="round"/>
<path d="M77.6456 42.8142C86.56 41.2803 93.8443 37.7056 102.419 29.7222C110.6 37.7039 117.759 41.279 126.445 42.8134C133.326 44.029 141.183 43.9592 151.206 43.87C153.861 43.8464 156.669 43.8214 159.651 43.8186C164.259 50.8866 166.364 54.1181 168.384 57.4012C169.984 60.0007 171.532 62.6325 174.228 67.2266C165.664 77.6292 167.188 91.8454 170.658 107.566C171.46 111.198 172.367 114.92 173.293 118.715C176.488 131.815 179.897 145.794 179.897 159.971C179.897 179.212 168.347 191.671 152.721 201.354C144.906 206.197 136.117 210.315 127.319 214.221C125.324 215.107 123.327 215.982 121.341 216.852C114.755 219.739 108.292 222.572 102.416 225.554C98.5976 223.778 94.5096 221.98 90.2795 220.118C77.8282 214.64 64.1468 208.621 52.4817 201.037C36.7187 190.788 24.9743 177.886 24.9743 159.971C24.9743 151.739 26.3874 143.114 28.2052 134.453C28.9583 130.864 29.7864 127.247 30.6094 123.652C31.7591 118.631 32.8989 113.652 33.8109 108.853C36.8842 92.6832 37.5932 77.6004 27.4231 67.1845C30.8787 61.6327 32.7099 58.6976 34.6248 55.818C36.6523 52.7692 38.7735 49.7827 43.0157 43.8186C46.2013 43.8211 49.1875 43.8464 52.0006 43.8703C62.5027 43.9592 70.5926 44.0278 77.6456 42.8142Z" fill="black" stroke="black" stroke-width="2" stroke-linecap="round" stroke-linejoin="round"/>
<path d="M62.2647 196.377C56.7455 198.354 51.1232 202.466 55.577 205.962C57.9678 207.838 65.0242 209.231 65.0242 209.231L71.9232 201.321C71.9232 201.321 66.4106 194.891 62.2647 196.377Z" fill="#F60F07" stroke="#F1FE11"/>
<path d="M142.607 196.377C148.126 198.354 153.749 202.466 149.295 205.962C146.904 207.838 139.848 209.231 139.848 209.231L132.949 201.321C132.949 201.321 138.461 194.891 142.607 196.377Z" fill="#F60F07" stroke="#F1FE11"/>
<path d="M33.782 177.628C47.9488 177.628 65.3847 186.346 75.1923 198.333C70.8333 202.692 70.8333 202.692 65.3847 205.962C55.577 191.795 37.0512 188.526 19.6154 185.256C15.001 184.391 14.1667 173.269 16.3461 166.731C18.5256 172.179 27.2437 177.628 33.782 177.628Z" fill="#F60F07" stroke="#FDF910" stroke-linejoin="round"/>
<path d="M23.9745 173.269C23.9743 165.641 23.9745 160.192 23.9745 154.744C29.3278 153.284 34.385 156.416 37.0512 161.282C39.7095 166.134 37.0512 170 35.9617 176.538C30.5128 178.718 27.2435 175.449 23.9745 173.269Z" fill="#F60F07" stroke="#FDF910" stroke-linejoin="round"/>
<path d="M38.1411 165.641C36.3249 168.547 30.9488 172.833 23.9744 166.731" stroke="#FDF910" stroke-linecap="round"/>
<path d="M23.9745 173.269C23.9743 165.641 23.9745 160.192 23.9745 154.744C29.3278 153.284 34.385 156.416 37.0512 161.282C39.7095 166.134 37.0512 170 35.9617 176.538C30.5128 178.718 27.2435 175.449 23.9745 173.269Z" fill="#F60F07" stroke="#FDF910" stroke-width="0.5" stroke-linejoin="round"/>
<path d="M38.1411 165.641C36.3249 168.547 30.9488 172.833 23.9744 166.731" stroke="#FDF910" stroke-width="0.5" stroke-linecap="round"/>
<path d="M33.782 175.449C47.9488 175.449 65.3847 186.346 75.1923 198.333C70.8333 202.692 70.8333 202.692 65.3847 205.962C55.577 191.795 37.0512 188.526 19.6154 185.256C15.001 184.391 14.1667 173.269 16.3461 166.731C18.5256 172.179 27.2437 175.449 33.782 175.449Z" fill="#F60F07" stroke="#FDF910" stroke-width="0.5" stroke-linejoin="round"/>
<path d="M181.987 173.269C181.987 165.641 181.987 160.192 181.987 154.744C176.634 153.284 171.577 156.416 168.91 161.282C166.252 166.134 168.91 170 170 176.538C175.449 178.718 178.718 175.449 181.987 173.269Z" fill="#F60F07" stroke="#FDF910" stroke-width="0.5" stroke-linejoin="round"/>
<path d="M167.821 165.641C169.637 168.547 175.013 172.833 181.987 166.731" stroke="#FDF910" stroke-width="0.5" stroke-linecap="round"/>
<path d="M172.18 175.449C158.013 175.449 140.577 186.346 130.769 198.333C135.128 202.692 135.128 202.692 140.577 205.962C150.385 191.795 168.91 188.526 186.346 185.256C190.961 184.391 191.795 173.269 189.615 166.731C187.436 172.179 178.718 175.449 172.18 175.449Z" fill="#F60F07" stroke="#FDF910" stroke-width="0.5" stroke-linejoin="round"/>
<path d="M52.1557 213.391C52.0954 213.438 52.0594 213.509 52.0578 213.585C52.0562 213.661 52.0893 213.733 52.1477 213.782L52.1772 213.806C55.4185 216.508 57.0738 217.887 59.0068 218.853C60.9385 219.819 63.1425 220.37 67.4649 221.451L67.5035 221.461C67.5724 221.478 67.6454 221.465 67.7042 221.425C69.32 220.332 70.8586 219.287 72.3267 218.29C79.2809 213.567 84.6527 209.918 89.143 207.336C94.5801 204.21 98.6882 202.67 102.708 202.67C106.727 202.67 110.698 204.209 115.86 207.333C120.125 209.915 125.178 213.562 131.722 218.286C133.103 219.283 134.551 220.328 136.072 221.421C136.132 221.464 136.207 221.478 136.279 221.461L136.302 221.455C140.639 220.37 142.834 219.822 144.893 218.998C146.952 218.174 148.873 217.077 152.668 214.908L152.688 214.897C152.76 214.856 152.807 214.781 152.813 214.699C152.82 214.616 152.785 214.536 152.72 214.484C152.061 213.957 151.41 213.436 150.768 212.922C139.479 203.888 130.844 196.977 123.55 192.232C115.839 187.217 109.593 184.599 103.259 184.462C96.9233 184.324 90.5403 186.667 82.5552 191.479C74.572 196.289 64.9564 203.587 52.1557 213.391Z" fill="#F60F07" stroke="#FDF910" stroke-width="0.5" stroke-linejoin="round"/>
<path d="M142.578 197.705C142.691 197.573 142.772 197.43 142.82 197.276C142.867 197.123 142.885 196.968 142.873 196.813C142.859 196.657 142.816 196.506 142.744 196.36C142.672 196.211 142.572 196.075 142.445 195.954C142.321 195.836 142.184 195.747 142.035 195.686C141.886 195.622 141.735 195.589 141.582 195.587C141.429 195.585 141.279 195.614 141.134 195.675C140.988 195.735 140.855 195.829 140.735 195.954L142.578 197.705ZM140.157 196.595C140.042 196.729 139.961 196.873 139.913 197.027C139.867 197.179 139.851 197.333 139.865 197.489C139.879 197.646 139.922 197.797 139.996 197.945C140.068 198.091 140.166 198.223 140.29 198.341C140.418 198.462 140.556 198.555 140.705 198.619C140.853 198.681 141.003 198.713 141.156 198.716C141.307 198.716 141.455 198.687 141.599 198.628C141.745 198.568 141.879 198.474 142 198.346L140.157 196.595ZM140.227 195.472C140.438 195.252 140.667 195.084 140.915 194.968C141.163 194.851 141.412 194.787 141.664 194.774C141.917 194.759 142.164 194.794 142.404 194.879C142.643 194.963 142.86 195.097 143.053 195.281C143.247 195.466 143.396 195.678 143.498 195.919C143.599 196.157 143.652 196.407 143.657 196.667C143.664 196.925 143.62 197.186 143.526 197.448C143.432 197.71 143.286 197.958 143.089 198.19L143.511 198.591L142.932 199.232L142.51 198.831C142.301 199.049 142.073 199.216 141.825 199.333C141.576 199.447 141.325 199.513 141.073 199.529C140.82 199.543 140.574 199.508 140.334 199.424C140.093 199.338 139.875 199.202 139.68 199.017C139.487 198.834 139.34 198.623 139.24 198.384C139.139 198.145 139.087 197.897 139.083 197.638C139.078 197.378 139.122 197.117 139.216 196.854C139.31 196.592 139.454 196.345 139.649 196.113L139.234 195.719L139.813 195.078L140.227 195.472Z" fill="#FDF910"/>
<path d="M146.169 193.666L144.668 192.821C144.599 192.786 144.521 192.74 144.433 192.686C144.345 192.631 144.252 192.57 144.153 192.504C144.206 192.611 144.253 192.713 144.296 192.812C144.336 192.908 144.37 192.995 144.396 193.071L145.003 194.698L146.169 193.666ZM148.57 194.009L148.043 194.475C147.984 194.528 147.923 194.556 147.861 194.559C147.798 194.561 147.738 194.548 147.681 194.52L146.76 194.002L145.242 195.345L145.615 196.348C145.636 196.4 145.64 196.459 145.629 196.526C145.618 196.593 145.583 196.653 145.524 196.705L144.994 197.174L143.262 192.171L143.959 191.555L148.57 194.009Z" fill="#FDF910"/>
<path d="M152.903 191.094L152.227 191.569C152.157 191.618 152.085 191.641 152.012 191.637C151.94 191.632 151.859 191.608 151.769 191.564L149.988 190.804C149.939 190.78 149.893 190.766 149.851 190.76C149.809 190.75 149.768 190.749 149.729 190.754C149.69 190.757 149.65 190.769 149.609 190.789C149.57 190.808 149.527 190.834 149.481 190.866L149.035 191.179L150.249 192.957L149.504 193.48L146.744 189.438L147.489 188.915L148.646 190.609L149.023 190.344C149.098 190.291 149.155 190.232 149.193 190.167C149.23 190.102 149.249 190.017 149.248 189.913L149.234 187.988C149.23 187.903 149.24 187.824 149.264 187.751C149.289 187.679 149.336 187.618 149.406 187.569L150.044 187.122L150.062 189.507C150.064 189.611 150.05 189.707 150.021 189.796C149.992 189.886 149.95 189.969 149.894 190.047C150.026 190.001 150.154 189.986 150.276 190.002C150.4 190.015 150.537 190.056 150.689 190.126L152.903 191.094Z" fill="#FDF910"/>
<path d="M154.988 184.475L155.28 189.132C155.289 189.294 155.282 189.437 155.258 189.558C155.234 189.679 155.195 189.786 155.14 189.879C155.087 189.97 155.019 190.05 154.936 190.12C154.856 190.19 154.764 190.254 154.659 190.312C154.517 190.391 154.407 190.435 154.327 190.446C154.248 190.456 154.195 190.436 154.168 190.387L153.895 189.888L154.126 189.76C154.17 189.736 154.212 189.707 154.253 189.674C154.294 189.641 154.33 189.601 154.36 189.553C154.393 189.504 154.418 189.446 154.435 189.379C154.453 189.313 154.46 189.234 154.457 189.143L154.437 188.705L151.074 186.645L151.82 186.232C151.889 186.193 151.954 186.179 152.013 186.19C152.073 186.201 152.131 186.224 152.187 186.26L153.879 187.373C153.972 187.435 154.06 187.499 154.142 187.564C154.226 187.629 154.306 187.698 154.382 187.772C154.336 187.565 154.308 187.355 154.296 187.142L154.161 185.165C154.159 185.11 154.17 185.051 154.193 184.99C154.215 184.928 154.26 184.878 154.327 184.841L154.988 184.475Z" fill="#FDF910"/>
<path d="M161.64 187.09L160.796 187.448L159.157 183.587L157.926 184.108C158.137 184.686 158.303 185.193 158.424 185.629C158.547 186.062 158.632 186.44 158.681 186.763C158.731 187.082 158.746 187.352 158.727 187.574C158.711 187.794 158.668 187.979 158.599 188.128C158.529 188.275 158.437 188.395 158.324 188.487C158.21 188.577 158.083 188.651 157.941 188.711C157.792 188.775 157.677 188.807 157.597 188.809C157.517 188.811 157.466 188.786 157.444 188.734L157.222 188.211L157.462 188.109C157.516 188.086 157.567 188.057 157.616 188.022C157.667 187.986 157.711 187.937 157.748 187.874C157.787 187.809 157.815 187.727 157.835 187.628C157.856 187.528 157.863 187.404 157.857 187.255C157.851 187.103 157.829 186.924 157.79 186.717C157.754 186.509 157.695 186.266 157.616 185.986C157.538 185.705 157.438 185.385 157.315 185.025C157.193 184.663 157.042 184.253 156.864 183.797L159.728 182.585L161.64 187.09Z" fill="#FDF910"/>
<path d="M164.357 185.633C164.519 185.584 164.649 185.526 164.746 185.459C164.845 185.389 164.918 185.312 164.965 185.229C165.013 185.147 165.037 185.059 165.039 184.966C165.041 184.874 165.027 184.779 164.997 184.682C164.964 184.577 164.92 184.485 164.865 184.407C164.81 184.33 164.74 184.272 164.655 184.234C164.569 184.194 164.467 184.174 164.349 184.175C164.231 184.175 164.091 184.2 163.929 184.249L163.164 184.481L163.596 185.864L164.357 185.633ZM163.717 183.571C164.021 183.478 164.292 183.433 164.529 183.434C164.768 183.435 164.974 183.472 165.146 183.548C165.32 183.62 165.464 183.725 165.577 183.862C165.691 183.998 165.775 184.155 165.831 184.334C165.9 184.553 165.923 184.764 165.901 184.967C165.881 185.169 165.818 185.356 165.711 185.53C165.604 185.702 165.455 185.854 165.262 185.988C165.072 186.121 164.841 186.229 164.569 186.312L162.936 186.807L161.478 182.135L162.349 181.87L162.953 183.803L163.717 183.571Z" fill="#FDF910"/>
<path d="M169.861 180.966L168.413 181.253L169.279 185.309L168.386 185.486L167.52 181.43L166.073 181.718L165.917 180.986L169.705 180.234L169.861 180.966Z" fill="#FDF910"/>
<path d="M171.044 180.759C171.214 180.553 171.43 180.379 171.691 180.238C171.954 180.096 172.264 180.009 172.619 179.977C172.976 179.944 173.309 179.976 173.617 180.073C173.927 180.167 174.2 180.315 174.436 180.515C174.674 180.716 174.868 180.963 175.019 181.257C175.17 181.55 175.265 181.878 175.306 182.244C175.346 182.605 175.328 182.943 175.252 183.258C175.176 183.573 175.048 183.85 174.868 184.088C174.69 184.326 174.463 184.52 174.187 184.67C173.911 184.82 173.593 184.911 173.234 184.943C172.831 184.98 172.477 184.946 172.17 184.843C171.866 184.739 171.601 184.574 171.376 184.347L171.694 183.928C171.725 183.886 171.766 183.863 171.815 183.859C171.865 183.855 171.918 183.872 171.974 183.913C172.056 183.973 172.137 184.024 172.216 184.064C172.298 184.102 172.381 184.132 172.468 184.153C172.556 184.175 172.651 184.188 172.751 184.192C172.854 184.196 172.967 184.193 173.091 184.182C173.277 184.165 173.449 184.117 173.606 184.04C173.765 183.962 173.902 183.856 174.017 183.724C174.134 183.591 174.225 183.433 174.291 183.25C174.359 183.065 174.394 182.858 174.396 182.629L172.137 182.834L172.062 182.161L174.31 181.957C174.255 181.747 174.177 181.563 174.075 181.404C173.973 181.244 173.853 181.112 173.714 181.009C173.576 180.906 173.421 180.833 173.251 180.789C173.082 180.743 172.902 180.729 172.711 180.747C172.518 180.764 172.361 180.799 172.239 180.851C172.118 180.902 172.017 180.956 171.937 181.01C171.859 181.065 171.794 181.115 171.743 181.161C171.691 181.206 171.64 181.231 171.591 181.236C171.542 181.24 171.501 181.234 171.47 181.216C171.44 181.198 171.414 181.177 171.391 181.152L171.044 180.759Z" fill="#FDF910"/>
<path d="M180.514 180.694L179.039 180.673L179.086 184.819L178.175 184.806L178.128 180.659L176.653 180.638L176.644 179.89L180.506 179.946L180.514 180.694Z" fill="#FDF910"/>
<path d="M34.1092 184.725C34.2784 184.727 34.4214 184.707 34.5382 184.668C34.6549 184.628 34.7485 184.575 34.819 184.508C34.8917 184.441 34.9446 184.362 34.9777 184.272C35.013 184.182 35.0327 184.087 35.0369 183.985C35.0412 183.879 35.0282 183.784 34.9977 183.701C34.9674 183.615 34.9173 183.542 34.8475 183.483C34.7778 183.421 34.6861 183.374 34.5723 183.342C34.4608 183.309 34.3249 183.293 34.1647 183.291L33.2474 183.284L33.1885 184.718L34.1092 184.725ZM33.3312 181.241L33.2732 182.655L33.9976 182.661C34.309 182.663 34.546 182.609 34.7085 182.497C34.8734 182.386 34.9608 182.207 34.9709 181.961C34.9814 181.707 34.9166 181.525 34.7767 181.415C34.6367 181.306 34.4132 181.25 34.1063 181.247L33.3312 181.241ZM34.1352 180.544C34.4557 180.546 34.7286 180.579 34.954 180.642C35.1794 180.705 35.362 180.793 35.5018 180.907C35.6439 181.021 35.7454 181.158 35.8066 181.319C35.8677 181.479 35.8941 181.66 35.8859 181.861C35.8812 181.976 35.8597 182.086 35.8215 182.192C35.7834 182.295 35.7264 182.393 35.6504 182.485C35.5767 182.574 35.4831 182.656 35.3694 182.729C35.2581 182.803 35.1257 182.865 34.9724 182.915C35.6387 183.072 35.96 183.438 35.9364 184.013C35.9279 184.22 35.8805 184.411 35.7943 184.587C35.7081 184.762 35.5868 184.913 35.4303 185.04C35.274 185.166 35.0837 185.263 34.8596 185.334C34.6355 185.404 34.3813 185.438 34.097 185.436L32.2488 185.421L32.4496 180.53L34.1352 180.544Z" fill="#FDF910"/>
<path d="M40.7019 184.345L40.3983 182.651C40.382 182.575 40.3669 182.486 40.3531 182.383C40.3392 182.281 40.3268 182.17 40.3157 182.052C40.2666 182.161 40.2175 182.263 40.1685 182.358C40.1199 182.451 40.0746 182.532 40.0326 182.6L39.1634 184.106L40.7019 184.345ZM41.9671 186.412L41.2714 186.304C41.1933 186.292 41.1331 186.263 41.0908 186.218C41.0489 186.17 41.0208 186.115 41.0065 186.054L40.8201 185.014L38.8167 184.702L38.2807 185.629C38.2537 185.678 38.2109 185.719 38.1521 185.753C38.0933 185.787 38.0249 185.798 37.9468 185.786L37.2478 185.677L40.0045 181.154L40.9242 181.297L41.9671 186.412Z" fill="#FDF910"/>
<path d="M46.2846 183.436L45.8703 184.728L47.5056 185.238L47.2917 185.905L45.6564 185.396L45.2339 186.714L47.3087 187.36L47.0866 188.053L44.1391 187.135L45.633 182.474L48.5805 183.392L48.3594 184.082L46.2846 183.436Z" fill="#FDF910"/>
<path d="M55.1684 186.475L53.0656 190.895L52.2425 190.498L53.1615 188.566L51.0916 187.567L50.1725 189.499L49.3494 189.102L51.4521 184.682L52.2753 185.079L51.3708 186.98L53.4408 187.979L54.3453 186.078L55.1684 186.475Z" fill="#FDF910"/>
<path d="M61.0387 190.516L58.3274 194.591L57.5766 194.07L58.7617 192.288L56.8737 190.978L55.6886 192.759L54.9378 192.238L57.6492 188.163L58.4 188.684L57.2337 190.437L59.1217 191.747L60.288 189.994L61.0387 190.516Z" fill="#FDF910"/>
<path d="M61.6784 196.877C61.8007 196.994 61.9147 197.078 62.0204 197.129C62.1291 197.18 62.2307 197.206 62.3249 197.205C62.4191 197.205 62.5062 197.182 62.5862 197.137C62.6661 197.092 62.74 197.031 62.8078 196.956C62.8816 196.873 62.9381 196.788 62.9771 196.701C63.0162 196.613 63.0308 196.523 63.0209 196.429C63.0125 196.334 62.9789 196.234 62.9199 196.131C62.861 196.028 62.7704 195.918 62.648 195.801L62.0707 195.249L61.1036 196.327L61.6784 196.877ZM63.1226 195.272C63.3525 195.492 63.5257 195.706 63.6421 195.914C63.7601 196.123 63.8298 196.323 63.8512 196.512C63.8757 196.7 63.8574 196.88 63.7964 197.049C63.7368 197.217 63.6445 197.37 63.5195 197.51C63.3658 197.681 63.1971 197.809 63.0134 197.892C62.8313 197.977 62.6396 198.017 62.4383 198.011C62.2385 198.004 62.0338 197.951 61.8242 197.85C61.6161 197.751 61.4094 197.603 61.2039 197.407L59.971 196.227L63.2386 192.583L63.8966 193.212L62.5453 194.72L63.1226 195.272ZM63.677 199.772L63.0165 199.14L66.2841 195.496L66.9445 196.128L63.677 199.772Z" fill="#FDF910"/>
<path d="M87.9875 202.424C88.1978 202.236 88.3531 202.057 88.4532 201.887C88.5536 201.711 88.611 201.544 88.6253 201.385C88.6396 201.226 88.6161 201.076 88.5548 200.934C88.4935 200.792 88.4065 200.658 88.2938 200.531C88.171 200.394 88.0412 200.285 87.9045 200.206C87.7679 200.126 87.6222 200.087 87.4676 200.089C87.3105 200.088 87.143 200.13 86.9652 200.213C86.7874 200.296 86.5933 200.432 86.3829 200.62L85.3901 201.507L86.9988 203.307L87.9875 202.424ZM85.5936 199.736C85.9891 199.383 86.3659 199.124 86.724 198.961C87.085 198.794 87.4215 198.708 87.7335 198.702C88.0458 198.69 88.3355 198.749 88.6026 198.879C88.8671 199.005 89.1034 199.185 89.3114 199.418C89.567 199.704 89.7483 200.009 89.8553 200.332C89.9651 200.652 89.9998 200.982 89.9594 201.32C89.9166 201.656 89.7964 201.993 89.5989 202.331C89.4042 202.666 89.1302 202.992 88.7768 203.307L86.6564 205.202L81.2213 199.118L85.3485 195.431L86.1303 196.306L83.1348 198.982L84.6007 200.623L85.5936 199.736Z" fill="#FDF910"/>
<path d="M97.5957 197.844L95.6907 192.342L93.585 193.072C93.8044 193.843 93.9784 194.535 94.1068 195.148C94.2388 195.759 94.3337 196.303 94.3915 196.78C94.4494 197.258 94.4745 197.675 94.4667 198.032C94.4589 198.389 94.4251 198.699 94.3651 198.963L97.5957 197.844ZM100.235 196.93L101.11 199.457C101.153 199.582 101.144 199.696 101.085 199.8C101.029 199.903 100.934 199.978 100.799 200.025L99.9349 200.324L99.2999 198.49L93.6383 200.45L94.1312 201.874C94.1742 201.998 94.166 202.112 94.1066 202.216C94.0507 202.319 93.9552 202.394 93.8202 202.441L92.9565 202.74L91.9394 199.803L92.7817 199.511C92.8628 199.423 92.931 199.304 92.9864 199.153C93.0453 199.002 93.084 198.803 93.1026 198.558C93.1211 198.313 93.1147 198.013 93.0832 197.657C93.0553 197.301 92.9939 196.876 92.899 196.384C92.8028 195.888 92.6683 195.315 92.4955 194.667C92.3262 194.017 92.1106 193.274 91.8488 192.437L96.748 190.74L99.0351 197.346L100.235 196.93Z" fill="#FDF910"/>
<path d="M108.913 191.016L105.186 197.82C105.054 198.057 104.917 198.25 104.776 198.4C104.635 198.549 104.485 198.664 104.325 198.744C104.169 198.825 104.002 198.877 103.824 198.9C103.649 198.926 103.462 198.933 103.263 198.921C102.992 198.904 102.797 198.867 102.676 198.811C102.555 198.754 102.498 198.679 102.504 198.585L102.563 197.639L103.002 197.667C103.085 197.672 103.169 197.67 103.257 197.66C103.344 197.651 103.43 197.626 103.516 197.586C103.605 197.546 103.691 197.488 103.775 197.41C103.859 197.332 103.939 197.228 104.015 197.097L104.377 196.464L101.469 190.55L102.888 190.639C103.019 190.647 103.122 190.686 103.197 190.755C103.272 190.823 103.333 190.908 103.379 191.009L104.774 194.092C104.85 194.263 104.917 194.431 104.975 194.597C105.036 194.762 105.087 194.931 105.129 195.104C105.248 194.772 105.395 194.451 105.568 194.142L107.135 191.244C107.181 191.164 107.248 191.091 107.335 191.025C107.422 190.959 107.529 190.93 107.657 190.938L108.913 191.016Z" fill="#FDF910"/>
<path d="M111.466 200.95L110.06 200.363L113.206 192.836L114.611 193.423L111.466 200.95Z" fill="#FDF910"/>
<path d="M119.945 202.058C120.152 202.244 120.356 202.38 120.555 202.468C120.757 202.552 120.951 202.592 121.137 202.587C121.329 202.581 121.511 202.532 121.684 202.44C121.86 202.345 122.024 202.212 122.177 202.041C122.322 201.878 122.429 201.708 122.496 201.531C122.563 201.354 122.588 201.174 122.57 200.992C122.551 200.809 122.486 200.625 122.375 200.439C122.265 200.251 122.106 200.063 121.895 199.875L121.05 199.119L119.099 201.303L119.945 202.058ZM122.677 199C123.084 199.363 123.393 199.725 123.605 200.086C123.817 200.447 123.944 200.8 123.985 201.144C124.025 201.488 123.985 201.82 123.865 202.141C123.747 202.465 123.562 202.768 123.309 203.052C123.046 203.346 122.755 203.573 122.436 203.732C122.12 203.888 121.785 203.967 121.431 203.969C121.076 203.97 120.707 203.887 120.322 203.719C119.94 203.554 119.551 203.295 119.155 202.942L118.31 202.186L116.396 204.328L115.265 203.317L120.7 197.233L122.677 199Z" fill="#FDF910"/>
<path fill-rule="evenodd" clip-rule="evenodd" d="M106.619 42.7719C109.145 42.7719 111.192 44.8194 111.192 47.345V102.222C111.192 104.747 109.145 106.795 106.619 106.795C104.094 106.795 102.046 104.747 102.046 102.222V47.345C102.046 44.8194 104.094 42.7719 106.619 42.7719Z" fill="white"/>
<path fill-rule="evenodd" clip-rule="evenodd" d="M145.948 68.381C148.473 68.381 150.521 70.4285 150.521 72.9541V101.307C150.521 103.833 148.473 105.88 145.948 105.88C143.422 105.88 141.374 103.833 141.374 101.307V72.9541C141.374 70.4285 143.422 68.381 145.948 68.381Z" fill="white"/>
<path fill-rule="evenodd" clip-rule="evenodd" d="M125.826 68.381C128.352 68.381 130.399 70.4285 130.399 72.9541V101.307C130.399 103.833 128.352 105.88 125.826 105.88C123.301 105.88 121.253 103.833 121.253 101.307V72.9541C121.253 70.4285 123.301 68.381 125.826 68.381Z" fill="white"/>
<path fill-rule="evenodd" clip-rule="evenodd" d="M87.4124 68.381C89.938 68.381 91.9855 70.4285 91.9855 72.9541V101.307C91.9855 103.833 89.938 105.88 87.4124 105.88C84.8868 105.88 82.8394 103.833 82.8394 101.307V72.9541C82.8394 70.4285 84.8868 68.381 87.4124 68.381Z" fill="white"/>
<path fill-rule="evenodd" clip-rule="evenodd" d="M106.127 44.2677C106.817 45.0062 106.777 46.1637 106.038 46.8532L51.1612 98.0716C50.4227 98.7608 49.2651 98.7209 48.5758 97.9823C47.8865 97.2438 47.9264 96.0863 48.665 95.3969L103.875 43.6866C104.614 42.9973 105.438 43.5291 106.127 44.2677Z" fill="white"/>
<path fill-rule="evenodd" clip-rule="evenodd" d="M145.476 69.8993C146.153 70.6494 146.094 71.8061 145.344 72.4829L109.363 105.88C108.613 106.557 105.938 106.941 105.261 106.191C104.584 105.441 104.644 104.284 105.394 103.608L143.204 69.2956C143.954 68.6188 144.8 69.1493 145.476 69.8993Z" fill="white"/>
<path fill-rule="evenodd" clip-rule="evenodd" d="M125.357 69.9012C126.032 70.6521 125.972 71.8088 125.221 72.4847L90.1563 104.966C89.4054 105.642 86.7287 106.026 86.0528 105.275C85.3769 104.524 85.4378 103.367 86.1887 102.691L123.082 69.2958C123.833 68.6199 124.681 69.1503 125.357 69.9012Z" fill="white"/>
<path fill-rule="evenodd" clip-rule="evenodd" d="M86.8766 69.8315C87.5909 70.5459 87.5909 71.7041 86.8766 72.4184L81.3889 77.9061C80.6746 78.6204 79.5163 78.6204 78.802 77.9061C78.0877 77.1918 78.0877 76.0335 78.802 75.3192L83.7539 70.2104C84.4683 69.4961 86.1623 69.1172 86.8766 69.8315Z" fill="white"/>
<path fill-rule="evenodd" clip-rule="evenodd" d="M156.522 95.5914C157.153 96.3803 157.025 97.5314 156.237 98.1625L148.692 104.966C147.903 105.597 145.15 105.983 144.519 105.194C143.888 104.405 144.016 103.254 144.805 102.623L153.951 95.3056C154.74 94.6745 155.891 94.8024 156.522 95.5914Z" fill="white"/>
<path fill-rule="evenodd" clip-rule="evenodd" d="M136.401 95.5914C137.032 96.3803 136.904 97.5314 136.115 98.1625L128.57 104.966C127.781 105.597 125.029 105.983 124.398 105.194C123.767 104.405 123.894 103.254 124.683 102.623L133.83 95.3056C134.618 94.6745 135.77 94.8024 136.401 95.5914Z" fill="white"/>
<path d="M137.308 47.9487C138.953 50.4915 141.255 57.1026 137.308 63.2051" stroke="white" stroke-linecap="round"/>
<path d="M130.769 47.9487C132.414 50.4915 134.716 57.1026 130.769 63.2051" stroke="white" stroke-linecap="round"/>
<path d="M124.231 47.9487C125.876 50.4915 128.178 57.1026 124.231 63.2051" stroke="white" stroke-linecap="round"/>
<path d="M102.814 180.047C102.739 180.19 102.535 180.19 102.46 180.047L96.9554 169.62C96.8851 169.487 96.9817 169.326 97.1323 169.326H108.142C108.293 169.326 108.389 169.487 108.319 169.62L102.814 180.047Z" fill="#FAF40A"/>
<path d="M102.46 109.309C102.535 109.167 102.739 109.167 102.814 109.309L108.319 119.737C108.389 119.87 108.293 120.03 108.142 120.03H97.1321C96.9815 120.03 96.885 119.87 96.9553 119.737L102.46 109.309Z" fill="#FAF40A"/>
<path d="M95.8973 138.398L90.4486 128.59L88.2691 132.949L81.7307 124.231" stroke="#FDF912" stroke-linejoin="round"/>
<path d="M77.2703 118.929C77.2419 118.771 77.4024 118.645 77.5491 118.711L88.3068 123.539C88.4443 123.601 88.4668 123.786 88.3481 123.879L79.6723 130.657C79.5536 130.75 79.3789 130.683 79.3523 130.535L77.2703 118.929Z" fill="#FAF40A"/>
<path d="M95.8973 138.398L90.4486 128.59L88.2691 132.949L81.7307 124.231" stroke="#FDF912" stroke-linejoin="round"/>
<path d="M77.2703 118.929C77.2419 118.771 77.4024 118.645 77.5491 118.711L88.3068 123.539C88.4443 123.601 88.4668 123.786 88.3481 123.879L79.6723 130.657C79.5536 130.75 79.3789 130.683 79.3523 130.535L77.2703 118.929Z" fill="#FAF40A"/>
<path d="M108.974 138.398L114.423 128.59L116.603 132.949L123.141 124.231" stroke="#FDF912" stroke-linejoin="round"/>
<path d="M127.601 118.929C127.63 118.771 127.469 118.645 127.323 118.711L116.565 123.539C116.427 123.601 116.405 123.786 116.524 123.879L125.199 130.657C125.318 130.75 125.493 130.683 125.519 130.535L127.601 118.929Z" fill="#FAF40A"/>
<path d="M95.8973 138.398L90.4486 128.59L88.2691 132.949L81.7307 124.231" stroke="#FDF912" stroke-linejoin="round"/>
<path d="M77.2703 118.929C77.2419 118.771 77.4024 118.645 77.5491 118.711L88.3068 123.539C88.4443 123.601 88.4668 123.786 88.3481 123.879L79.6723 130.657C79.5536 130.75 79.3789 130.683 79.3523 130.535L77.2703 118.929Z" fill="#FAF40A"/>
<path d="M93.7178 159.102L88.2691 168.91L86.0896 164.551L79.5511 173.269" stroke="#FDF912" stroke-linejoin="round"/>
<path d="M75.0908 178.571C75.0624 178.729 75.2229 178.855 75.3696 178.789L86.1273 173.961C86.2648 173.899 86.2873 173.714 86.1686 173.621L77.4927 166.843C77.3741 166.75 77.1994 166.817 77.1728 166.965L75.0908 178.571Z" fill="#FAF40A"/>
<path d="M108.974 138.398L114.423 128.59L116.603 132.949L123.141 124.231" stroke="#FDF912" stroke-linejoin="round"/>
<path d="M127.601 118.929C127.63 118.771 127.469 118.645 127.323 118.711L116.565 123.539C116.427 123.601 116.405 123.786 116.524 123.879L125.199 130.657C125.318 130.75 125.493 130.683 125.519 130.535L127.601 118.929Z" fill="#FAF40A"/>
<path d="M111.154 159.102L116.603 168.91L118.782 164.551L125.321 173.269" stroke="#FDF912" stroke-linejoin="round"/>
<path d="M129.781 178.571C129.809 178.729 129.649 178.855 129.502 178.789L118.744 173.961C118.607 173.899 118.584 173.714 118.703 173.621L127.379 166.843C127.498 166.75 127.672 166.817 127.699 166.965L129.781 178.571Z" fill="#FAF40A"/>
<path d="M102.436 138.252C72.1698 138.252 64.2949 137.308 52.3077 137.308C53.3976 153.654 68.6539 160.192 102.436 155.224V138.252Z" fill="#FAF40A" stroke="black" stroke-width="0.5" stroke-linejoin="round"/>
<path d="M102.436 137.368C69.5378 137.368 59.9358 138.458 47.9485 136.218C49.0383 148.205 69.7434 155.833 102.436 151.511V137.368Z" fill="#FAF40A" stroke="black" stroke-width="0.5" stroke-linejoin="round"/>
<path d="M102.436 136.042C70.8538 136.042 56.6665 136.218 45.769 134.038C45.769 140.577 74.8016 155.224 102.436 145.943V136.042Z" fill="#FAF40A" stroke="black" stroke-width="0.5" stroke-linejoin="round"/>
<path d="M102.436 135.159C66.9062 135.159 43.5898 132.949 43.5898 132.949C43.5898 132.949 57.7565 147.115 102.436 142.23V135.159Z" fill="#FAF40A" stroke="black" stroke-width="0.5" stroke-linejoin="round"/>
<path d="M78.4615 137.308C92.0228 143.535 102.436 137.308 102.436 137.308C102.436 137.308 102.436 147.686 102.436 154.951C85.0001 153.913 84.2736 151.838 78.4615 137.308Z" fill="#FDF912" stroke="black" stroke-width="0.5" stroke-linejoin="round"/>
<path d="M74.1027 135.128C88.794 139.487 102.436 135.855 102.436 135.855C102.436 135.855 102.436 144.209 102.436 149.295C83.5472 148.568 79.5514 147.115 74.1027 135.128Z" fill="#FDF912" stroke="black" stroke-width="0.5" stroke-linejoin="round"/>
<path d="M69.7437 132.949C86.6952 136.062 102.436 135.024 102.436 135.024C102.436 135.024 102.436 140.214 102.436 143.846C80.6412 143.327 77.0087 140.214 69.7437 132.949Z" fill="#FDF912" stroke="black" stroke-width="0.5" stroke-linejoin="round"/>
<path d="M102.436 138.252C132.702 138.252 140.577 137.308 152.564 137.308C151.475 153.654 136.218 160.192 102.436 155.224V138.252Z" fill="#FAF40A" stroke="black" stroke-width="0.5" stroke-linejoin="round"/>
<path d="M102.436 137.368C135.334 137.368 144.936 138.458 156.923 136.218C155.834 148.205 135.129 155.833 102.436 151.511V137.368Z" fill="#FAF40A" stroke="black" stroke-width="0.5" stroke-linejoin="round"/>
<path d="M102.436 136.042C134.018 136.042 148.205 136.218 159.103 134.038C159.103 140.577 130.07 155.224 102.436 145.943V136.042Z" fill="#FAF40A" stroke="black" stroke-width="0.5" stroke-linejoin="round"/>
<path d="M102.436 135.159C137.966 135.159 161.282 132.949 161.282 132.949C161.282 132.949 147.116 147.115 102.436 142.23V135.159Z" fill="#FAF40A" stroke="black" stroke-width="0.5" stroke-linejoin="round"/>
<path d="M126.411 137.308C112.849 143.535 102.436 137.308 102.436 137.308C102.436 137.308 102.436 147.686 102.436 154.951C119.872 153.913 120.598 151.838 126.411 137.308Z" fill="#FDF912" stroke="black" stroke-width="0.5" stroke-linejoin="round"/>
<path d="M130.77 135.128C116.078 139.487 102.436 135.855 102.436 135.855C102.436 135.855 102.436 144.209 102.436 149.295C121.325 148.568 125.321 147.115 130.77 135.128Z" fill="#FDF912" stroke="black" stroke-width="0.5" stroke-linejoin="round"/>
<path d="M135.129 132.949C118.177 136.062 102.436 135.024 102.436 135.024C102.436 135.024 102.436 140.214 102.436 143.846C124.231 143.327 127.863 140.214 135.129 132.949Z" fill="#FDF912" stroke="black" stroke-width="0.5" stroke-linejoin="round"/>
<path d="M102.436 118.782V172.179" stroke="#FAF40A"/>
<path d="M102.436 126.41L108.014 140.717L126.066 140.717L111.462 149.559L117.04 163.866L102.436 155.024L87.8316 163.866L93.4099 149.559L78.8057 140.717L96.8575 140.717L102.436 126.41Z" fill="#E61008"/>
<path d="M102.436 126.41L104.334 144.938L126.066 140.717L105.508 147.947L117.04 163.866L102.436 149.807L87.8316 163.866L99.3639 147.947L78.8057 140.717L100.537 144.938L102.436 126.41Z" fill="#9E080B"/>
</svg>
